#N canvas 378 266 753 461 12;
#X obj 357 257 tabread;
#X msg 446 183 set \$1;
#X obj 455 63 loadbang;
#X obj 439 121 symbol \$1;
#X obj 508 121 f \$2;
#X obj 105 119 hsl 94 19 -3 3 0 0 empty empty empty -2 -8 0 10 -262144
-1 -1 4050 1;
#X obj 405 316 tabwrite;
#X obj 256 121 bng 15 250 50 0 empty empty reset 17 8 0 9 -262144 -1
-1;
#X msg 32 245 0;
#X obj 352 45 inlet;
#X obj 352 69 bang;
#X floatatom 203 119 7 0 0 0 - - -;
#X msg 102 72 set \$1;
#X obj 151 218 t b a;
#X obj 206 197 t b a;
#X obj 107 286 t b a;
#X obj 358 231 f \$2;
#X connect 0 0 12 0;
#X connect 1 0 0 0;
#X connect 1 0 6 0;
#X connect 2 0 3 0;
#X connect 2 0 4 0;
#X connect 3 0 1 0;
#X connect 4 0 0 0;
#X connect 4 0 6 1;
#X connect 5 0 13 0;
#X connect 7 0 8 0;
#X connect 8 0 15 0;
#X connect 9 0 10 0;
#X connect 10 0 4 0;
#X connect 11 0 14 0;
#X connect 12 0 5 0;
#X connect 12 0 11 0;
#X connect 13 0 16 0;
#X connect 13 1 6 0;
#X connect 14 0 16 0;
#X connect 14 1 6 0;
#X connect 15 0 16 0;
#X connect 15 1 6 0;
#X connect 16 0 0 0;
#X coords 0 -1 1 1 200 40 1 100 100;
